<?xml version="1.0" encoding="UTF-8" standalone="no"?>
<svg width="60px" height="60px" viewBox="0 0 60 60" version="1.1" xmlns="http://www.w3.org/2000/svg" xmlns:xlink="http://www.w3.org/1999/xlink" xmlns:sketch="http://www.bohemiancoding.com/sketch/ns">
    <!-- Generator: Sketch 3.2.2 (9983) - http://www.bohemiancoding.com/sketch -->
    <title>Compactcam</title>
    <desc>Created with Sketch.</desc>
    <defs></defs>
    <g id="filled" stroke="none" stroke-width="1" fill="none" fill-rule="evenodd" sketch:type="MSPage">
        <g id="Photo_sliced" sketch:type="MSLayerGroup" transform="translate(-120.000000, 0.000000)"></g>
        <g id="Photo" sketch:type="MSLayerGroup" transform="translate(-114.000000, 3.000000)" stroke="#535353" stroke-width="2" stroke-linecap="round" fill="#D8D8D8" stroke-linejoin="round">
            <g id="Compactcam" transform="translate(117.000000, 5.000000)" sketch:type="MSShapeGroup">
                <path d="M0,12 L54,12 L54,44 L0,44 L0,12 Z M27,39 C33.0751322,39 38,34.0751322 38,28 C38,21.9248678 33.0751322,17 27,17 C20.9248678,17 16,21.9248678 16,28 C16,34.0751322 20.9248678,39 27,39 Z M41,18.5 C41,17.1192881 42.1216589,16 43.5070018,16 L47.4929982,16 C48.8775771,16 50,17.1096621 50,18.5 C50,19.8807119 48.8783411,21 47.4929982,21 L43.5070018,21 C42.1224229,21 41,19.8903379 41,18.5 Z" id="Rectangle-2530"></path>
                <circle id="Oval-1858" cx="27" cy="28" r="5"></circle>
                <rect id="Rectangle-2532" x="6" y="8" width="9" height="5"></rect>
                <rect id="Rectangle-2533" x="31" y="0" width="17" height="13"></rect>
            </g>
        </g>
    </g>
</svg>